<?xml version="1.0" encoding="UTF-8" standalone="no"?><svg xmlns="http://www.w3.org/2000/svg" xmlns:xlink="http://www.w3.org/1999/xlink" contentScriptType="application/ecmascript" contentStyleType="text/css" height="1306px" preserveAspectRatio="none" style="width:2096px;height:1306px;" version="1.1" viewBox="0 0 2096 1306" width="2096px" zoomAndPan="magnify"><defs><filter height="300%" id="ffb9xlzow6t09" width="300%" x="-1" y="-1"><feGaussianBlur result="blurOut" stdDeviation="4.0"/><feColorMatrix in="blurOut" result="blurOut2" type="matrix" values="0 0 0 0 0 0 0 0 0 0 0 0 0 0 0 0 0 0 .4 0"/><feOffset dx="8.0" dy="8.0" in="blurOut2" result="blurOut3"/><feBlend in="SourceGraphic" in2="blurOut3" mode="normal"/></filter></defs><g><!--MD5=[90401ae8b1561bdc1a2b2305c9da2296]
cluster LyXTemplate--><polygon fill="#FFFFFF" filter="url(#ffb9xlzow6t09)" points="44,48,258,48,272,92.5938,2052,92.5938,2052,1282,44,1282,44,48" style="stroke: #000000; stroke-width: 3.0;"/><line style="stroke: #000000; stroke-width: 3.0;" x1="44" x2="272" y1="92.5938" y2="92.5938"/><text fill="#000000" font-family="sans-serif" font-size="28" font-weight="bold" lengthAdjust="spacingAndGlyphs" textLength="202" x="52" y="77.9902">LyXTemplate</text><text fill="#000000" font-family="sans-serif" font-size="28" font-style="italic" lengthAdjust="spacingAndGlyphs" textLength="204" x="954" y="122.584">«本项目文件夹»</text><!--MD5=[dc6c9e4b8bcc09e00656c54f84e82deb]
cluster 7--><polygon fill="#FFFFFF" filter="url(#ffb9xlzow6t09)" points="890,166,922,166,936,210.5938,2004,210.5938,2004,578,890,578,890,166" style="stroke: #000000; stroke-width: 3.0;"/><line style="stroke: #000000; stroke-width: 3.0;" x1="890" x2="936" y1="210.5938" y2="210.5938"/><text fill="#000000" font-family="sans-serif" font-size="28" font-weight="bold" lengthAdjust="spacingAndGlyphs" textLength="20" x="898" y="195.9902">7</text><text fill="#000000" font-family="sans-serif" font-size="28" font-style="italic" lengthAdjust="spacingAndGlyphs" textLength="212" x="1349" y="240.584">«第1部分: 概览»</text><!--MD5=[cfb8c1df59fa222b7d46c92f6122dba4]
cluster 70--><polygon fill="#FFFFFF" filter="url(#ffb9xlzow6t09)" points="938,284,990,284,1004,328.5938,1956,328.5938,1956,530,938,530,938,284" style="stroke: #000000; stroke-width: 3.0;"/><line style="stroke: #000000; stroke-width: 3.0;" x1="938" x2="1004" y1="328.5938" y2="328.5938"/><text fill="#000000" font-family="sans-serif" font-size="28" font-weight="bold" lengthAdjust="spacingAndGlyphs" textLength="40" x="946" y="313.9902">70</text><text fill="#000000" font-family="sans-serif" font-size="28" font-style="italic" lengthAdjust="spacingAndGlyphs" textLength="240" x="1335" y="358.584">«第1部分的第1章»</text><!--MD5=[2c440d47a37bc663ce9ce0549eeed501]
cluster 新的部分--><polygon fill="#F0F8FF" filter="url(#ffb9xlzow6t09)" points="268,676,392,676,406,720.5938,810,720.5938,810,990,268,990,268,676" style="stroke: #0000FF; stroke-width: 2.0; stroke-dasharray: 1.0,3.0;"/><line style="stroke: #0000FF; stroke-width: 2.0; stroke-dasharray: 1.0,3.0;" x1="268" x2="406" y1="720.5938" y2="720.5938"/><text fill="#000000" font-family="sans-serif" font-size="28" font-weight="bold" lengthAdjust="spacingAndGlyphs" textLength="112" x="276" y="705.9902">新的部分</text><!--MD5=[137cf3c4889fe86a405c1d63123b639b]
cluster 新章--><polygon fill="#F0F8FF" filter="url(#ffb9xlzow6t09)" points="316,762,384,762,398,806.5938,762,806.5938,762,942,316,942,316,762" style="stroke: #0000FF; stroke-width: 2.0; stroke-dasharray: 1.0,3.0;"/><line style="stroke: #0000FF; stroke-width: 2.0; stroke-dasharray: 1.0,3.0;" x1="316" x2="398" y1="806.5938" y2="806.5938"/><text fill="#000000" font-family="sans-serif" font-size="28" font-weight="bold" lengthAdjust="spacingAndGlyphs" textLength="56" x="324" y="791.9902">新章</text><!--MD5=[a671f1a0b6bff3d546ea2d7f31f4dd1d]
cluster template--><polygon fill="#FFFFFF" filter="url(#ffb9xlzow6t09)" points="92,250,242,250,256,294.5938,842,294.5938,842,558,92,558,92,250" style="stroke: #000000; stroke-width: 3.0;"/><line style="stroke: #000000; stroke-width: 3.0;" x1="92" x2="256" y1="294.5938" y2="294.5938"/><text fill="#000000" font-family="sans-serif" font-size="28" font-weight="bold" lengthAdjust="spacingAndGlyphs" textLength="138" x="100" y="279.9902">template</text><!--MD5=[f0d5c8b24aa740369c896b65c16cfbfb]
cluster template --><polygon fill="#FFFFFF" filter="url(#ffb9xlzow6t09)" points="140,336,300,336,314,380.5938,794,380.5938,794,510,140,510,140,336" style="stroke: #000000; stroke-width: 3.0;"/><line style="stroke: #000000; stroke-width: 3.0;" x1="140" x2="314" y1="380.5938" y2="380.5938"/><text fill="#000000" font-family="sans-serif" font-size="28" font-weight="bold" lengthAdjust="spacingAndGlyphs" textLength="138" x="148" y="365.9902">template</text><!--MD5=[eee5515ec669a720c0ff12b0c0a8cdec]
cluster LearningMath.lyx--><polygon fill="#FFFFFF" filter="url(#ffb9xlzow6t09)" points="510,1088,510,1234,810,1234,810,1108,790,1088,510,1088" style="stroke: #000000; stroke-width: 3.0;"/><path d="M790,1088 L790,1108 L810,1108 " fill="#FFFFFF" style="stroke: #000000; stroke-width: 3.0;"/><text fill="#000000" font-family="sans-serif" font-size="28" font-weight="bold" lengthAdjust="spacingAndGlyphs" textLength="268" x="526" y="1117.9902">LearningMath.lyx</text><!--MD5=[73a801ffb2ef0b34a3504a29d4eb5ac9]
entity 70.lyx--><polygon fill="#FEFECE" filter="url(#ffb9xlzow6t09)" points="1396,389,1396,494.1875,1924,494.1875,1924,409,1904,389,1396,389" style="stroke: #000000; stroke-width: 3.0;"/><path d="M1904,389 L1904,409 L1924,409 " fill="#FEFECE" style="stroke: #000000; stroke-width: 3.0;"/><text fill="#000000" font-family="sans-serif" font-size="28" font-weight="bold" lengthAdjust="spacingAndGlyphs" textLength="94" x="1613" y="434.9902">70.lyx</text><text fill="#000000" font-family="sans-serif" font-size="28" lengthAdjust="spacingAndGlyphs" textLength="488" x="1416" y="467.584">第1部分第1章的文档, 可单独编译为pdf</text><!--MD5=[07d22bc408e6d44b3db681eae72b0261]
entity picture--><polygon fill="#F0F8FF" filter="url(#ffb9xlzow6t09)" points="970,386,1094,386,1108,430.5938,1326,430.5938,1326,497.1875,970,497.1875,970,386" style="stroke: #0000FF; stroke-width: 2.0; stroke-dasharray: 1.0,3.0;"/><line style="stroke: #0000FF; stroke-width: 2.0; stroke-dasharray: 1.0,3.0;" x1="970" x2="1108" y1="430.5938" y2="430.5938"/><text fill="#000000" font-family="sans-serif" font-size="28" font-weight="bold" lengthAdjust="spacingAndGlyphs" textLength="112" x="978" y="417.9902">picture</text><text fill="#000000" font-family="sans-serif" font-size="28" font-style="italic" lengthAdjust="spacingAndGlyphs" textLength="296" x="990" y="470.584">«第1部分第1章的图片»</text><!--MD5=[9ab78e9b57de15005695cabf55c151e2]
entity 新章.lyx--><polygon fill="#F0F8FF" filter="url(#ffb9xlzow6t09)" points="591,835,591,907.5938,729,907.5938,729,855,709,835,591,835" style="stroke: #0000FF; stroke-width: 2.0; stroke-dasharray: 1.0,3.0;"/><path d="M709,835 L709,855 L729,855 " fill="#F0F8FF" style="stroke: #0000FF; stroke-width: 2.0; stroke-dasharray: 1.0,3.0;"/><text fill="#000000" font-family="sans-serif" font-size="28" lengthAdjust="spacingAndGlyphs" textLength="98" x="611" y="880.9902">新章.lyx</text><!--MD5=[7daf8093ced6057050f046699c04fcc0]
entity picture --><polygon fill="#F0F8FF" filter="url(#ffb9xlzow6t09)" points="348,832,472,832,486,876.5938,520,876.5938,520,910.5938,348,910.5938,348,832" style="stroke: #0000FF; stroke-width: 2.0; stroke-dasharray: 1.0,3.0;"/><line style="stroke: #0000FF; stroke-width: 2.0; stroke-dasharray: 1.0,3.0;" x1="348" x2="486" y1="876.5938" y2="876.5938"/><text fill="#000000" font-family="sans-serif" font-size="28" font-weight="bold" lengthAdjust="spacingAndGlyphs" textLength="112" x="356" y="863.9902">picture</text><!--MD5=[b708919088274d6f87713323800f00d1]
entity template.lyx--><polygon fill="#FEFECE" filter="url(#ffb9xlzow6t09)" points="558,406,558,478.5938,762,478.5938,762,426,742,406,558,406" style="stroke: #000000; stroke-width: 3.0;"/><path d="M742,406 L742,426 L762,426 " fill="#FEFECE" style="stroke: #000000; stroke-width: 3.0;"/><text fill="#000000" font-family="sans-serif" font-size="28" lengthAdjust="spacingAndGlyphs" textLength="164" x="578" y="451.9902">template.lyx</text><!--MD5=[a527de86565aa67691af531fe9ec76f4]
entity template_english.lyx--><polygon fill="#FEFECE" filter="url(#ffb9xlzow6t09)" points="171,406,171,478.5938,489,478.5938,489,426,469,406,171,406" style="stroke: #000000; stroke-width: 3.0;"/><path d="M469,406 L469,426 L489,426 " fill="#FEFECE" style="stroke: #000000; stroke-width: 3.0;"/><text fill="#000000" font-family="sans-serif" font-size="28" lengthAdjust="spacingAndGlyphs" textLength="278" x="191" y="451.9902">template_english.lyx</text><!--MD5=[8e9b2d9d80e066cced8e5d90e9bdea61]
entity c--><rect fill="#F0F8FF" filter="url(#ffb9xlzow6t09)" height="44.5938" style="stroke: #0000FF; stroke-width: 2.0; stroke-dasharray: 1.0,3.0;" width="212" x="554" y="1158"/><text fill="#000000" font-family="sans-serif" font-size="28" lengthAdjust="spacingAndGlyphs" textLength="172" x="574" y="1189.9902">包含: 新章.lyx</text><!--MD5=[42662d23b28fe806415f019dba1c0cd2]
link template.lyx to 新章.lyx--><path d="M660,478.06 C660,554.38 660,739.04 660,824.38 " fill="none" id="template.lyx-&gt;新章.lyx" style="stroke: #A80036; stroke-width: 2.0;"/><polygon fill="#A80036" points="660,834.78,668,816.78,660,824.78,652,816.78,660,834.78" style="stroke: #A80036; stroke-width: 2.0;"/><text fill="#000000" font-family="sans-serif" font-size="26" lengthAdjust="spacingAndGlyphs" textLength="78" x="662" y="636.1338">复制到</text><!--MD5=[7949ee4cd04a97f4b5307912624234bd]
link 新章.lyx to c--><path d="M660,907.4 C660,962.28 660,1069.78 660,1131.48 " fill="none" id="新章.lyx-&gt;c" style="stroke: #A80036; stroke-width: 2.0;"/><polygon fill="#FFFFFF" points="660,1157.66,668,1145.66,660,1133.66,652,1145.66,660,1157.66" style="stroke: #A80036; stroke-width: 2.0;"/><text fill="#000000" font-family="sans-serif" font-size="26" lengthAdjust="spacingAndGlyphs" textLength="156" x="662" y="1048.1338">添加为子文档</text><!--MD5=[6a19b0e12a4d43caa8987a5e7262535e]
@startuml
skinparam defaultTextAlignment center
scale 2

package "LyXTemplate" <<本项目文件夹>> {
package "7" <<第1部分: 概览>> {
package "70" <<第1部分的第1章>> {
file "<b>70.lyx</b>\n 第1部分第1章的文档, 可单独编译为pdf" as 70.lyx
package "picture" <<第1部分第1章的图片>> #aliceblue;line:blue;line.dotted
}
}

package "新的部分" #aliceblue;line:blue;line.dotted {
package "新章" #aliceblue;line:blue;line.dotted {
file "新章.lyx" #aliceblue;line:blue;line.dotted
package "picture " #aliceblue;line:blue;line.dotted
}
}

package "template" {
package "template " {
file "template.lyx"
file "template_english.lyx"
}
}

file "LearningMath.lyx" {
card "包含: 新章.lyx" as c #aliceblue;line:blue;line.dotted
}
}

template.lyx - -> 新章.lyx : 复制到
新章.lyx - -o c : 添加为子文档

@enduml

PlantUML version 1.2020.02(Sun Mar 01 18:22:07 HKT 2020)
(GPL source distribution)
Java Runtime: OpenJDK Runtime Environment
JVM: OpenJDK 64-Bit Server VM
Java Version: 11.0.16+8-post-Debian-1deb11u1
Operating System: Linux
Default Encoding: UTF-8
Language: en
Country: HK
--></g></svg>